<svg xmlns="http://www.w3.org/2000/svg" viewBox="0 0 120 120" width="120" height="120"><defs><linearGradient id="bg" x1="0%" y1="0%" x2="100%" y2="100%"><stop offset="0%" style="stop-color:#4A90D9"/><stop offset="100%" style="stop-color:#2563EB"/></linearGradient><linearGradient id="eg" x1="0%" y1="0%" x2="100%" y2="100%"><stop offset="0%" style="stop-color:#60A5FA"/><stop offset="100%" style="stop-color:#3B82F6"/></linearGradient></defs><path d="M15,20 Q15,8 30,8 L90,8 Q105,8 105,20 L105,72 Q105,84 90,84 L40,84 L22,100 L26,84 L30,84 Q15,84 15,72 Z" fill="url(#bg)"/><rect x="25" y="22" width="70" height="45" rx="4" fill="url(#eg)"/><path d="M25,22 L60,48 L95,22" fill="none" stroke="white" stroke-width="3" stroke-linejoin="round"/><line x1="25" y1="67" x2="45" y2="50" stroke="white" stroke-width="2" opacity="0.6"/><line x1="95" y1="67" x2="75" y2="50" stroke="white" stroke-width="2" opacity="0.6"/><circle cx="48" cy="78" r="3.5" fill="white" opacity="0.9"/><circle cx="60" cy="78" r="3.5" fill="white" opacity="0.9"/><circle cx="72" cy="78" r="3.5" fill="white" opacity="0.9"/></svg>
